<?xml version="1.0" standalone="no"?><!DOCTYPE svg PUBLIC "-//W3C//DTD SVG 1.1//EN" "http://www.w3.org/Graphics/SVG/1.1/DTD/svg11.dtd"><svg t="1528433240070" class="icon" style="" viewBox="0 0 1024 1024" version="1.1" xmlns="http://www.w3.org/2000/svg" p-id="12393" xmlns:xlink="http://www.w3.org/1999/xlink" width="16" height="16"><defs><style type="text/css"></style></defs><path d="M128 128 896 128 896 896 128 896 128 128M329.813333 769.706667C346.88 805.973333 380.586667 835.84 438.186667 835.84 502.186667 835.84 546.133333 801.706667 546.133333 727.04L546.133333 480.426667 473.6 480.426667 473.6 725.333333C473.6 762.026667 458.666667 771.413333 435.2 771.413333 410.453333 771.413333 400.213333 754.346667 388.693333 734.293333L329.813333 769.706667M584.96 762.026667C606.293333 803.84 649.386667 835.84 716.8 835.84 785.066667 835.84 836.266667 800.426667 836.266667 735.146667 836.266667 674.986667 801.706667 648.106667 740.266667 621.653333L722.346667 613.973333C691.2 600.746667 677.973333 591.786667 677.973333 570.453333 677.973333 552.96 691.2 539.306667 712.533333 539.306667 733.013333 539.306667 746.666667 548.266667 759.04 570.453333L814.933333 533.333333C791.466667 492.373333 758.186667 476.586667 712.533333 476.586667 648.106667 476.586667 606.72 517.546667 606.72 571.733333 606.72 630.613333 641.28 658.346667 693.333333 680.533333L711.253333 688.213333C744.533333 702.72 764.16 711.68 764.16 736.426667 764.16 756.906667 744.96 771.84 715.093333 771.84 679.68 771.84 659.2 753.493333 643.84 727.893333L584.96 762.026667Z" p-id="12394" fill="#b18c3d"></path></svg>