<?xml version="1.0" standalone="no"?><!DOCTYPE svg PUBLIC "-//W3C//DTD SVG 1.1//EN" "http://www.w3.org/Graphics/SVG/1.1/DTD/svg11.dtd"><svg t="1528433111867" class="icon" style="" viewBox="0 0 1024 1024" version="1.1" xmlns="http://www.w3.org/2000/svg" p-id="11173" xmlns:xlink="http://www.w3.org/1999/xlink" width="16" height="16"><defs><style type="text/css"></style></defs><path d="M904 260H736v-56c0-30.9-25.1-56-56-56H344c-30.9 0-56 25.1-56 56v56H120c-30.9 0-56 25.1-56 56v504c0 30.9 25.1 56 56 56h784c30.9 0 56-25.1 56-56V316c0-30.9-25.1-56-56-56z m-560-56h336v56H344v-56z m560 616H120V596h308v28c0 30.9 25.1 56 56 56h56c30.9 0 56-25.1 56-56v-28h308v224zM484 624V512h56v112h-56z m112-84v-28c0-30.9-25.1-56-56-56h-56c-30.9 0-56 25.1-56 56v28H120V316h784v224H596z" p-id="11174" fill="#f4ea2a"></path></svg>